# xmcd
#
# Track frame offsets:
#	150
#	15396
#	30422
#	45182
#	61818
#	73331
#	87318
#	103084
#	119726
#	134173
#	151141
#	165033
#
# Disc length: 2407 seconds
#
# Revision: 1
# Processed by: cddbd v1.5.2PL0 Copyright (c) Steve Scherf et al.
# Submitted via: EasyCDDAExtractor 15.3.0.1
#
DISCID=9309650c
DTITLE=Alejandra Guzman - A and No Poder
DYEAR=2015
DGENRE=Latin
TTITLE0=Te Esperare
TTITLE1=Malvada
TTITLE2=Adios (Featuring Farruko)
TTITLE3=Que Ironia
TTITLE4=This Is Too Much Rock And Roll
TTITLE5=Esta Noche
TTITLE6=Agua Bendita
TTITLE7=Mi Debilidad
TTITLE8=A Mas No Poder
TTITLE9=Una Cancion De Amor
TTITLE10=No Puedo Parar
TTITLE11=Lejos De Ti
EXTD=
EXTT0=
EXTT1=
EXTT2=
EXTT3=
EXTT4=
EXTT5=
EXTT6=
EXTT7=
EXTT8=
EXTT9=
EXTT10=
EXTT11=
PLAYORDER=
